<mxfile host="app.diagrams.net" agent="Mozilla/5.0 (Windows NT 10.0; Win64; x64) AppleWebKit/537.36 (KHTML, like Gecko) Chrome/141.0.0.0 Safari/537.36" version="28.2.5">
  <diagram name="Page-1" id="JjaDHd8WQwLUoF3FyLLp">
    <mxGraphModel dx="1426" dy="743" grid="1" gridSize="10" guides="1" tooltips="1" connect="1" arrows="1" fold="1" page="1" pageScale="1" pageWidth="850" pageHeight="1100" math="0" shadow="0">
      <root>
        <mxCell id="0" />
        <mxCell id="1" parent="0" />
        <mxCell id="Cn0nInts3_zbgmBhaWaF-1" value="" style="rounded=1;whiteSpace=wrap;html=1;" vertex="1" parent="1">
          <mxGeometry x="330" y="130" width="270" height="540" as="geometry" />
        </mxCell>
        <mxCell id="Cn0nInts3_zbgmBhaWaF-2" value="Chris Thomas&lt;div&gt;Main Search&lt;/div&gt;&lt;div&gt;Smartphone&lt;/div&gt;&lt;div&gt;Wireframe #1&lt;/div&gt;" style="text;html=1;align=left;verticalAlign=middle;whiteSpace=wrap;rounded=0;fontSize=9;" vertex="1" parent="1">
          <mxGeometry x="10" y="10" width="90" height="50" as="geometry" />
        </mxCell>
        <mxCell id="Cn0nInts3_zbgmBhaWaF-4" value="" style="ellipse;whiteSpace=wrap;html=1;aspect=fixed;" vertex="1" parent="1">
          <mxGeometry x="510" y="140" width="10" height="10" as="geometry" />
        </mxCell>
        <mxCell id="Cn0nInts3_zbgmBhaWaF-5" value="" style="rounded=1;whiteSpace=wrap;html=1;" vertex="1" parent="1">
          <mxGeometry x="340" y="160" width="250" height="500" as="geometry" />
        </mxCell>
        <mxCell id="Cn0nInts3_zbgmBhaWaF-7" value="" style="rounded=1;whiteSpace=wrap;html=1;" vertex="1" parent="1">
          <mxGeometry x="430" y="140" width="70" height="10" as="geometry" />
        </mxCell>
        <mxCell id="Cn0nInts3_zbgmBhaWaF-9" value="" style="rounded=0;whiteSpace=wrap;html=1;" vertex="1" parent="1">
          <mxGeometry x="370" y="170" width="190" height="30" as="geometry" />
        </mxCell>
        <mxCell id="Cn0nInts3_zbgmBhaWaF-10" value="&lt;font face=&quot;Comic Sans MS&quot;&gt;Living Loved Aggregator&amp;nbsp;&lt;/font&gt;" style="text;html=1;align=center;verticalAlign=middle;whiteSpace=wrap;rounded=0;" vertex="1" parent="1">
          <mxGeometry x="385" y="170" width="160" height="30" as="geometry" />
        </mxCell>
        <mxCell id="Cn0nInts3_zbgmBhaWaF-11" value="" style="rounded=0;whiteSpace=wrap;html=1;" vertex="1" parent="1">
          <mxGeometry x="370" y="230" width="200" height="70" as="geometry" />
        </mxCell>
        <mxCell id="Cn0nInts3_zbgmBhaWaF-12" value="Home&lt;div&gt;&lt;span style=&quot;background-color: transparent; color: light-dark(rgb(0, 0, 0), rgb(255, 255, 255));&quot;&gt;Housing Support&lt;/span&gt;&lt;/div&gt;&lt;div&gt;Vocational Training&lt;/div&gt;&lt;div&gt;**Forum: Share Your Hope&lt;/div&gt;&lt;div&gt;&lt;br&gt;&lt;/div&gt;" style="text;html=1;align=left;verticalAlign=top;whiteSpace=wrap;rounded=0;fontFamily=Comic Sans MS;" vertex="1" parent="1">
          <mxGeometry x="380" y="230" width="180" height="70" as="geometry" />
        </mxCell>
        <mxCell id="Cn0nInts3_zbgmBhaWaF-13" value="" style="endArrow=none;html=1;rounded=0;" edge="1" parent="1">
          <mxGeometry width="50" height="50" relative="1" as="geometry">
            <mxPoint x="345" y="220" as="sourcePoint" />
            <mxPoint x="585" y="220" as="targetPoint" />
          </mxGeometry>
        </mxCell>
        <mxCell id="Cn0nInts3_zbgmBhaWaF-15" value="" style="endArrow=none;html=1;rounded=0;" edge="1" parent="1">
          <mxGeometry width="50" height="50" relative="1" as="geometry">
            <mxPoint x="345" y="320" as="sourcePoint" />
            <mxPoint x="585" y="320" as="targetPoint" />
          </mxGeometry>
        </mxCell>
        <mxCell id="Cn0nInts3_zbgmBhaWaF-17" value="&lt;font face=&quot;Comic Sans MS&quot;&gt;Search Box (Input Field)&lt;/font&gt;" style="rounded=1;whiteSpace=wrap;html=1;" vertex="1" parent="1">
          <mxGeometry x="350" y="340" width="230" height="30" as="geometry" />
        </mxCell>
        <mxCell id="Cn0nInts3_zbgmBhaWaF-19" value="&lt;font face=&quot;Comic Sans MS&quot;&gt;Search Button&lt;/font&gt;" style="rounded=1;whiteSpace=wrap;html=1;" vertex="1" parent="1">
          <mxGeometry x="410" y="370" width="110" height="20" as="geometry" />
        </mxCell>
        <mxCell id="Cn0nInts3_zbgmBhaWaF-21" value="" style="rounded=0;whiteSpace=wrap;html=1;" vertex="1" parent="1">
          <mxGeometry x="355" y="430" width="220" height="120" as="geometry" />
        </mxCell>
        <mxCell id="Cn0nInts3_zbgmBhaWaF-22" value="Your Results" style="text;html=1;align=center;verticalAlign=middle;whiteSpace=wrap;rounded=0;fontSize=17;fontFamily=Comic Sans MS;" vertex="1" parent="1">
          <mxGeometry x="385" y="440" width="160" height="30" as="geometry" />
        </mxCell>
        <mxCell id="Cn0nInts3_zbgmBhaWaF-23" value="&lt;font style=&quot;font-size: 14px;&quot; face=&quot;Comic Sans MS&quot;&gt;Enter a search term above&lt;/font&gt;&lt;div&gt;&lt;font style=&quot;font-size: 14px;&quot; face=&quot;Comic Sans MS&quot;&gt;to find inspiring images&lt;/font&gt;&lt;/div&gt;" style="rounded=0;whiteSpace=wrap;html=1;" vertex="1" parent="1">
          <mxGeometry x="370" y="480" width="190" height="60" as="geometry" />
        </mxCell>
        <mxCell id="Cn0nInts3_zbgmBhaWaF-24" value="&lt;font style=&quot;font-size: 14px;&quot; face=&quot;Comic Sans MS&quot;&gt;Â©2024 Living Loved&lt;/font&gt;&lt;div&gt;&lt;font style=&quot;font-size: 14px;&quot; face=&quot;Comic Sans MS&quot;&gt;info@livingloved.org&lt;/font&gt;&lt;/div&gt;" style="rounded=0;whiteSpace=wrap;html=1;" vertex="1" parent="1">
          <mxGeometry x="360" y="570" width="200" height="50" as="geometry" />
        </mxCell>
      </root>
    </mxGraphModel>
  </diagram>
</mxfile>
